<?xml version="1.0" encoding="UTF-8"?><svg width="88" height="31" version="1.1" viewBox="0 0 88 31" xmlns="http://www.w3.org/2000/svg"><rect x="0" y="0" width="88" height="31" fill="#f5f5ed" stroke-linecap="round" stroke-width="2"/><path d="m0 29v2h88v-31h-2v29z" fill="#666664"/><path d="m0 31v-31h88l-2 2h-84v27z" fill="#fff"/><g transform="matrix(3.7796 0 0 3.7796 -15.077 12.574)"><text x="15.279416" y="0.28897554" direction="rtl" font-family="'Fira Sans',sans-serif" font-size="3.7041px" style="line-height:1"><tspan x="15.279416" y="0.28897554">made</tspan><tspan x="15.279416" y="3.9930954">with</tspan></text><g transform="matrix(.033364 0 0 .033364 15.957 -2.8348)"><g transform="translate(-4.7334 4.339)"><path d="m176.58 37.973c-1.5928 1.0351-7.7054 13.981-7.8016 15.56 11.864 19.581 33.801-13.454 37.776-28.552 0 0-10.383 18.198-19.781 18.546-11.016.40785-8.5976-6.591-10.193-5.554z"/><path d="m22.472 15.759-6.6617 16.727s4.0805 9.7323 10.681 10.352c15.127 1.4212 31.962-27.219 36.703-27.079 4.7416.13946 14.359 7.6633 19.472 18.164 6.7296-13.164 14.921-19.011 28.503-9.2556 7.902 5.676 24.421 28.128 34.307 29.234 10.705 1.1977 19.902-8.9885 24.336-27.613-6.1362 7.9492-8.6346 11.518-14.783 11.924-6.3454.41838-5.7876 1.6735-27.962-21.337-22.174-23.011-32.634-11.994-39.188-2.2314-1.4643-1.6038-8.8816-13.625-17.82-13.528-6.3335.068767-16.884 15.058-23.194 20.501-6.5552 5.6538-10.486 6.6512-12.869 6.6785-3.694.044123-8.1455-1.8441-11.523-12.536z"/><path d="m76.605 33.617c-16.698 20.317-17.367 20.801-26.144 35.244s-11.107 24.044-6.9876 27.625c4.1506 3.6084 11.546 3.8076 20.605-2.8887 12.607-9.6615 29.435-23.449 34.055-35.188 1.2007-3.051-20.661 17.644-29.435 22.776-5.2636 3.0791-12.339 3.8889-16.14.21149-7.7563-7.5045 26.964-44.623 24.046-47.781z"/><path d="m101.41 64.71c-.0349-1.6387 8.4373-14.155 9.9017-14.643 21.246 14.288 10.181 51.042 3.2076 54.25 0 0 1.2203-15.759-1.9524-25.661-3.1727-9.9017-11.122-12.304-11.157-13.946z"/><path d="m212.02 32.79c-2.0056-8.5339 7.1093-31.605 18.736-31.605 29.028 0 14.931 46.288 9.2741 63.385-13.807 35.772-22.555 89.255-23.15 93.857-.72704 5.6175-9.4002 20.668-5.0206-4.1838s12.248-53.853 21.702-87.693c4.9583-17.748 10.989-49.402-5.7739-49.449-8.5514-.10933-8.0663 5.925-15.767 15.689z"/></g><g fill="#c64e3b"><path d="m176.58 37.973c-1.5928 1.0351-7.7054 13.981-7.8016 15.56 11.864 19.581 33.801-13.454 37.776-28.552 0 0-10.383 18.198-19.781 18.546-11.016.40785-8.5976-6.591-10.193-5.554z"/><path d="m22.472 15.759-6.6617 16.727s4.0805 9.7323 10.681 10.352c15.127 1.4212 31.962-27.219 36.703-27.079 4.7416.13946 14.359 7.6633 19.472 18.164 6.7296-13.164 14.921-19.011 28.503-9.2556 7.902 5.676 24.421 28.128 34.307 29.234 10.705 1.1977 19.902-8.9885 24.336-27.613-6.1362 7.9492-8.6346 11.518-14.783 11.924-6.3454.41838-5.7876 1.6735-27.962-21.337-22.174-23.011-32.634-11.994-39.188-2.2314-1.4643-1.6038-8.8816-13.625-17.82-13.528-6.3335.068767-16.884 15.058-23.194 20.501-6.5552 5.6538-10.486 6.6512-12.869 6.6785-3.694.044123-8.1455-1.8441-11.523-12.536z"/><path d="m76.605 33.617c-16.698 20.317-17.367 20.801-26.144 35.244s-11.107 24.044-6.9876 27.625c4.1506 3.6084 11.546 3.8076 20.605-2.8887 12.607-9.6615 29.435-23.449 34.055-35.188 1.2007-3.051-20.661 17.644-29.435 22.776-5.2636 3.0791-12.339 3.8889-16.14.21149-7.7563-7.5045 26.964-44.623 24.046-47.781z"/><path d="m101.41 64.71c-.0349-1.6387 8.4373-14.155 9.9017-14.643 21.246 14.288 10.181 51.042 3.2076 54.25 0 0 1.2203-15.759-1.9524-25.661-3.1727-9.9017-11.122-12.304-11.157-13.946z"/><path d="m212.02 32.79c-2.0056-8.5339 7.1093-31.605 18.736-31.605 29.028 0 14.931 46.288 9.2741 63.385-13.807 35.772-22.555 89.255-23.15 93.857-.72704 5.6175-9.4002 20.668-5.0206-4.1838s12.248-53.853 21.702-87.693c4.9583-17.748 10.989-49.402-5.7739-49.449-8.5514-.10933-8.0663 5.925-15.767 15.689z"/></g><g transform="translate(.81664 4.3945)"><path d="m79.887 152.5c-12.065 3.1125-29.384 39.683-30.143 45.637 2.7892.6973 61.277-67.947 30.552-4.3303 22.278-18.853 44.66-52.77 27.507-9.8637-4.0537 10.14 15.793 10.146 35.167-10.982-5.0796 3.2562-30.741 18.656-16.614-13.357 7.4198-16.815-17.136-.19442-23.987 6.2284 1.4327-6.5039 6.576-18.054-1.7516-14.855-8.3276 3.1987-17.306 9.7069-32.679 24.133 8.828-14.219 9.2864-15.708 11.949-22.61z"/><path d="m248.85 188.51c14.364-1.9724 35.509-23.834 6.3572-25.199-32.034-1.492 7.6703-12.83 7.6703-12.83-17.293-1.1157-48.733 18.209-23.081 15.271 25.829-2.9819 26.129 20.428-.55784 20.396-3.7347-.004-2.58-3.7306-2.58-3.7306l-10.886 4.8114c10.305 2.9584 14.931 2.3997 23.077 1.2811z"/><path d="m35.423 148.66c-15.272 8.3814-41.7 42.288-29.158 50.352 11.72 7.5355 62.677-28.722 71.402-45.261-73.364 57.771-63.601 21.147-50.659 8.2709 8.797-10.718 36.996-18.341 44.473-33.506-38.692 20.774-41.076 2.9847-8.8389-17.699 5.9274-3.796 45.107-21.778 15.127 3.4616 17.734-8.2554 32.758-21.015 21.173-23.515-15.057-3.2502-38.739 15.16-50.849 25.042-7.1227 5.8124-36.224 29.574-12.67 32.855z"/><path d="m153.52 181.55c-39.127 31.032-20.084-16.952 26.481-31.595-35.573 24.173-40.24 34.66-26.481 31.595z"/><path d="m196.31 176.97c-40.173 32.496-46.011-4.8644-12.005-21.862-17.164 26.823-.70826 22.556 12.005 21.862z"/><path d="m229.37 178.97c-43.798 32.078-50.892-17.695 7.9379-28.695-48.961 28.915-17.862 33.294-7.9379 28.695z"/></g><g fill="#2076c1"><path d="m79.887 152.5c-12.065 3.1125-29.384 39.683-30.143 45.637 2.7892.6973 61.277-67.947 30.552-4.3303 22.278-18.853 44.66-52.77 27.507-9.8637-4.0537 10.14 15.793 10.146 35.167-10.982-5.0796 3.2562-30.741 18.656-16.614-13.357 7.4198-16.815-17.136-.19442-23.987 6.2284 1.4327-6.5039 6.576-18.054-1.7516-14.855-8.3276 3.1987-17.306 9.7069-32.679 24.133 8.828-14.219 9.2864-15.708 11.949-22.61z"/><path d="m248.85 188.51c14.364-1.9724 35.509-23.834 6.3572-25.199-32.034-1.492 7.6703-12.83 7.6703-12.83-17.293-1.1157-48.733 18.209-23.081 15.271 25.829-2.9819 26.129 20.428-.55784 20.396-3.7347-.004-2.58-3.7306-2.58-3.7306l-10.886 4.8114c10.305 2.9584 14.931 2.3997 23.077 1.2811z"/><path d="m35.423 148.66c-15.272 8.3814-41.7 42.288-29.158 50.352 11.72 7.5355 62.677-28.722 71.402-45.261-73.364 57.771-63.601 21.147-50.659 8.2709 8.797-10.718 36.996-18.341 44.473-33.506-38.692 20.774-41.076 2.9847-8.8389-17.699 5.9274-3.796 45.107-21.778 15.127 3.4616 17.734-8.2554 32.758-21.015 21.173-23.515-15.057-3.2502-38.739 15.16-50.849 25.042-7.1227 5.8124-36.224 29.574-12.67 32.855z"/><path d="m153.52 181.55c-39.127 31.032-20.084-16.952 26.481-31.595-35.573 24.173-40.24 34.66-26.481 31.595z"/><path d="m196.31 176.97c-40.173 32.496-46.011-4.8644-12.005-21.862-17.164 26.823-.70826 22.556 12.005 21.862z"/><path d="m229.37 178.97c-43.798 32.078-50.892-17.695 7.9379-28.695-48.961 28.915-17.862 33.294-7.9379 28.695z"/></g><path d="m124.19 189.84c-4.9895-2.4947 24.079-70.683 28.105-47.729 1.8047 10.291 18.441-18.539 18.441-18.539s13.066-23.766 13.707-21.695c3.045 9.8375-35.431 73.543-38.163 57.492-2.7617-16.222-21.498 30.767-22.089 30.471z"/><path d="m127.37 186.63c-4.9895-2.4947 24.079-70.683 28.105-47.729 1.8047 10.291 18.441-18.539 18.441-18.539s13.066-23.766 13.707-21.695c3.045 9.8375-35.431 73.543-38.163 57.492-2.7617-16.222-21.498 30.767-22.089 30.471z" fill="#c64e3b"/><path d="m56.312 214.04s-.24653-14.595 24.456-45.559c19.912-24.959 42.995-60.943 42.995-60.943s-3.7847 18.981-20.604 40.652c-19.632 25.295-46.848 65.851-46.848 65.851z"/><path d="m59.523 215.22s-.24653-14.595 24.456-45.559c19.912-24.959 42.995-60.943 42.995-60.943s-3.7847 18.981-20.604 40.652c-19.632 25.295-46.848 65.851-46.848 65.851z" fill="#c64e3b"/></g></g></svg>
